<svg xmlns="http://www.w3.org/2000/svg" viewBox="0 0 1552.81 1020.44"><defs><style>.cls-1{fill:#cf1b1b;}.cls-2{fill:#900d0d;}.cls-3{fill:#423144;}</style></defs><title>[6b]laptop</title><g id="Layer_2" data-name="Layer 2"><path class="cls-1" d="M1042,1254v249H277.91c-7,0-8.75-2.5-8.75-5a10.26,10.26,0,0,1,1.75-5l196-239Z" transform="translate(-265.1 -511)"/><path class="cls-1" d="M1812.09,1493l-196-239V523a12,12,0,0,0-12-12H478.91a12,12,0,0,0-12,12v731H1041v248.89l-17.91.11h782c7,0,8.75-2.5,8.75-5A10.26,10.26,0,0,0,1812.09,1493Z" transform="translate(-265.1 -511)"/><path class="cls-2" d="M1813.84,1498l-772.34,4.89L269.16,1498s-6.25,15-3.25,18,55,14,105,15c45,.9,567.19.18,671.09,0h0c106.16.16,625.23.88,670.09,0,50-1,102-12,105-15S1813.84,1498,1813.84,1498Z" transform="translate(-265.1 -511)"/><polygon class="cls-3" points="776.9 34 775.9 34 221.81 34 221.81 669 775.9 669 776.9 669 1330.99 669 1330.99 34 776.9 34"/></g><g id="Layer_3" data-name="Layer 3"><path class="cls-3" d="M1222,1406H784c-6.85,0-10.77-4.77-8.74-10.51l1.21-3.43c2-5.58,9-10.07,15.57-10.07h422c6.6,0,13.59,4.49,15.57,10.07l1.21,3.43C1232.81,1401.23,1228.89,1406,1222,1406Z" transform="translate(-265.1 -511)"/><path class="cls-3" d="M755.26,1382H666.86c-6.21,0-14.2,5.15-17.87,11.63h0c-3.8,6.71-1.6,12.37,5,12.37h94c6.6,0,13.54-5.66,15.37-12.37h0C765.14,1387.15,761.46,1382,755.26,1382Z" transform="translate(-265.1 -511)"/><path class="cls-3" d="M628.18,1382H570c-4.09,0-9.35,5.15-11.76,11.63h0c-2.5,6.71-1.05,12.37,3.29,12.37H623.4c4.35,0,8.92-5.66,10.12-12.37h0C634.68,1387.15,632.26,1382,628.18,1382Z" transform="translate(-265.1 -511)"/><path class="cls-3" d="M641.18,1356H583c-4.09,0-9.35,5.15-11.76,11.63h0c-2.5,6.71-1.05,12.37,3.29,12.37H636.4c4.35,0,8.92-5.66,10.12-12.37h0C647.68,1361.15,645.26,1356,641.18,1356Z" transform="translate(-265.1 -511)"/><path class="cls-3" d="M550.9,1356h-125c-8.78,0-20.08,5.15-25.27,11.63h0c-5.37,6.71-2.26,12.37,7.07,12.37H540.64c9.33,0,19.15-5.66,21.74-12.37h0C564.87,1361.15,559.67,1356,550.9,1356Z" transform="translate(-265.1 -511)"/><path class="cls-3" d="M723.18,1356H665c-4.09,0-9.35,5.15-11.76,11.63h0c-2.5,6.71-1.05,12.37,3.29,12.37H718.4c4.35,0,8.92-5.66,10.12-12.37h0C729.68,1361.15,727.26,1356,723.18,1356Z" transform="translate(-265.1 -511)"/><path class="cls-3" d="M808.86,1356H750.72c-4.08,0-9.07,5.14-11.15,11.63h0c-2.15,6.71-.41,12.37,3.94,12.37H805.4c4.35,0,8.6-5.67,9.44-12.37h0C815.65,1361.14,812.94,1356,808.86,1356Z" transform="translate(-265.1 -511)"/><path class="cls-3" d="M890.4,1356H834.48c-3.93,0-9,5.15-11.3,11.63h0c-2.4,6.71-1,12.37,3.16,12.37h59.47c4.18,0,8.57-5.66,9.72-12.37h0C896.65,1361.15,894.33,1356,890.4,1356Z" transform="translate(-265.1 -511)"/><path class="cls-3" d="M970.87,1356H914.69c-3.94,0-7.79,5.33-8.55,11.91h0c-.77,6.63,1.88,12.09,5.88,12.09h57.07c4,0,7.67-5.47,8.13-12.09h0C977.67,1361.33,974.82,1356,970.87,1356Z" transform="translate(-265.1 -511)"/><path class="cls-3" d="M1054.87,1356H998.69c-3.94,0-7.79,5.33-8.55,11.91h0c-.77,6.63,1.88,12.09,5.88,12.09h57.07c4,0,7.67-5.47,8.13-12.09h0C1061.67,1361.33,1058.82,1356,1054.87,1356Z" transform="translate(-265.1 -511)"/><path class="cls-3" d="M548.75,1382h-60c-4.21,0-10.62,5.27-14.28,11.82h0c-3.73,6.65-3.27,12.18,1.08,12.18H537.4c4.35,0,10.46-5.53,13.54-12.18h0C554,1387.27,553,1382,548.75,1382Z" transform="translate(-265.1 -511)"/><path class="cls-3" d="M465.63,1382H401.88c-4.48,0-11.16,5.52-14.8,12.18h0c-3.58,6.55-2.91,11.82,1.43,11.82H450.4c4.35,0,11.3-5.28,15.52-11.82h0C470.21,1387.52,470.1,1382,465.63,1382Z" transform="translate(-265.1 -511)"/><path class="cls-3" d="M1248.7,1382h88.39c6.21,0,14.2,5.15,17.87,11.63h0c3.8,6.71,1.6,12.37-5,12.37h-94c-6.6,0-13.54-5.66-15.37-12.37h0C1238.82,1387.15,1242.49,1382,1248.7,1382Z" transform="translate(-265.1 -511)"/><path class="cls-3" d="M1374.41,1382h58.19c4.09,0,9.35,5.15,11.76,11.63h0c2.5,6.71,1.05,12.37-3.29,12.37h-61.89c-4.35,0-8.92-5.66-10.12-12.37h0C1367.9,1387.15,1370.32,1382,1374.41,1382Z" transform="translate(-265.1 -511)"/><path class="cls-3" d="M1453.84,1382h60c4.21,0,10.62,5.27,14.28,11.82h0c3.73,6.65,3.27,12.18-1.08,12.18h-61.89c-4.35,0-10.46-5.53-13.54-12.18h0C1448.62,1387.27,1449.62,1382,1453.84,1382Z" transform="translate(-265.1 -511)"/><path class="cls-3" d="M1537,1382h63.75c4.48,0,11.16,5.52,14.8,12.18h0c3.58,6.55,2.91,11.82-1.43,11.82h-61.89c-4.35,0-11.3-5.28-15.52-11.82h0C1532.38,1387.52,1532.48,1382,1537,1382Z" transform="translate(-265.1 -511)"/><path class="cls-3" d="M1624,1382h63.75c4.48,0,11.16,5.52,14.8,12.18h0c3.58,6.55,2.91,11.82-1.43,11.82h-61.89c-4.35,0-11.3-5.28-15.52-11.82h0C1619.38,1387.52,1619.48,1382,1624,1382Z" transform="translate(-265.1 -511)"/><path class="cls-3" d="M1013,1354H959.1a8,8,0,0,1-8.09-7.73l0-2.5a7.75,7.75,0,0,1,7.86-7.77H1013a7.91,7.91,0,0,1,8,7.77v2.5A7.87,7.87,0,0,1,1013,1354Z" transform="translate(-265.1 -511)"/><path class="cls-3" d="M933,1354H879.1a8,8,0,0,1-8.09-7.73l0-2.5a7.75,7.75,0,0,1,7.86-7.77H933a7.91,7.91,0,0,1,8,7.77v2.5A7.87,7.87,0,0,1,933,1354Z" transform="translate(-265.1 -511)"/><path class="cls-3" d="M850.4,1354H792.92c-4.67,0-7.62-3.54-6.58-7.83l.61-2.5c1-4.23,5.62-7.67,10.21-7.67h56.49c4.59,0,7.74,3.44,7,7.67l-.43,2.5C859.5,1350.46,855.07,1354,850.4,1354Z" transform="translate(-265.1 -511)"/><path class="cls-3" d="M768.4,1354H710.92c-4.67,0-7.62-3.54-6.58-7.83l.61-2.5c1-4.23,5.62-7.67,10.21-7.67h56.49c4.59,0,7.74,3.44,7,7.67l-.43,2.5C777.5,1350.46,773.07,1354,768.4,1354Z" transform="translate(-265.1 -511)"/><path class="cls-3" d="M688.4,1354H630.92c-4.67,0-7.62-3.54-6.58-7.83l.61-2.5c1-4.23,5.62-7.67,10.21-7.67h56.49c4.59,0,7.74,3.44,7,7.67l-.43,2.5C697.5,1350.46,693.07,1354,688.4,1354Z" transform="translate(-265.1 -511)"/><path class="cls-3" d="M607.4,1354H549.92c-4.67,0-7.62-3.54-6.58-7.83l.61-2.5c1-4.23,5.62-7.67,10.21-7.67h56.49c4.59,0,7.74,3.44,7,7.67l-.43,2.5C616.5,1350.46,612.07,1354,607.4,1354Z" transform="translate(-265.1 -511)"/><path class="cls-3" d="M519.47,1354H427.94c-7.43,0-12.14-3.54-10.47-7.83l1-2.5c1.64-4.23,9-7.67,16.26-7.67h90c7.3,0,12.33,3.44,11.16,7.67l-.69,2.5C534,1350.46,526.9,1354,519.47,1354Z" transform="translate(-265.1 -511)"/><path class="cls-3" d="M990.65,1333H940.77c-4.54,0-7.76-3.51-7.16-7.81l.47-3.33a9.63,9.63,0,0,1,9.39-7.85h50.1c4.56,0,7.74,3.54,7.08,7.85l-.52,3.33A9.76,9.76,0,0,1,990.65,1333Z" transform="translate(-265.1 -511)"/><path class="cls-3" d="M910.65,1333H860.77c-4.54,0-7.76-3.51-7.16-7.81l.47-3.33a9.63,9.63,0,0,1,9.39-7.85h50.1c4.56,0,7.74,3.54,7.08,7.85l-.52,3.33A9.76,9.76,0,0,1,910.65,1333Z" transform="translate(-265.1 -511)"/><path class="cls-3" d="M831.65,1333H781.77c-4.54,0-7-3.48-5.44-7.76l1.21-3.33a12.89,12.89,0,0,1,11.24-7.9h50.63c4.61,0,6.9,3.57,5.1,7.9l-1.38,3.33A13.52,13.52,0,0,1,831.65,1333Z" transform="translate(-265.1 -511)"/><path class="cls-3" d="M753.65,1333H703.77c-4.54,0-7-3.48-5.44-7.76l1.21-3.33a12.89,12.89,0,0,1,11.24-7.9h50.63c4.61,0,6.9,3.57,5.1,7.9l-1.38,3.33A13.52,13.52,0,0,1,753.65,1333Z" transform="translate(-265.1 -511)"/><path class="cls-3" d="M670.65,1333H620.77c-4.54,0-7-3.48-5.44-7.76l1.21-3.33a12.89,12.89,0,0,1,11.24-7.9h50.63c4.61,0,6.9,3.57,5.1,7.9l-1.38,3.33A13.52,13.52,0,0,1,670.65,1333Z" transform="translate(-265.1 -511)"/><path class="cls-3" d="M591.65,1333H541.77c-4.54,0-7-3.48-5.44-7.76l1.21-3.33a12.89,12.89,0,0,1,11.24-7.9h50.63c4.61,0,6.9,3.57,5.1,7.9l-1.38,3.33A13.52,13.52,0,0,1,591.65,1333Z" transform="translate(-265.1 -511)"/><path class="cls-3" d="M510.1,1333h-70c-6.37,0-9.81-3.48-7.63-7.76l1.7-3.33c2.2-4.33,9.31-7.9,15.77-7.9h71c6.46,0,9.67,3.57,7.15,7.9l-1.94,3.33C523.71,1329.52,516.47,1333,510.1,1333Z" transform="translate(-265.1 -511)"/><path class="cls-3" d="M956.14,1312h-51c-3.59,0-6.85-2.53-7.25-5.69l-.52-4.16c-.42-3.35,2.35-6.15,6.17-6.15h54.18c3.82,0,6.59,2.8,6.17,6.15l-.53,4.16C963,1309.47,959.73,1312,956.14,1312Z" transform="translate(-265.1 -511)"/><path class="cls-3" d="M1032.14,1312h-51c-3.59,0-6.85-2.53-7.25-5.69l-.52-4.16c-.42-3.35,2.35-6.15,6.17-6.15h54.18c3.82,0,6.59,2.8,6.17,6.15l-.53,4.16C1039,1309.47,1035.73,1312,1032.14,1312Z" transform="translate(-265.1 -511)"/><path class="cls-3" d="M876.12,1312h-51.7c-3.64,0-6.33-2.56-6-5.74l.48-4.16c.38-3.32,3.82-6.09,7.64-6.09h54.18c3.82,0,6.09,2.77,5.06,6.09l-1.29,4.16C883.54,1309.44,879.77,1312,876.12,1312Z" transform="translate(-265.1 -511)"/><path class="cls-3" d="M563.4,1312H511.29c-3.67,0-4.89-2.58-2.67-5.77l2.89-4.17c2.3-3.31,7.34-6.06,11.16-6.06h54.18c3.82,0,4.59,2.75,1.75,6.06l-3.57,4.17C572.29,1309.42,567.08,1312,563.4,1312Z" transform="translate(-265.1 -511)"/><path class="cls-3" d="M490.63,1312H450.2c-2.85,0-3.53-2.63-1.49-5.86l2.63-4.17c2.07-3.28,6.14-6,9-6h41.09c2.9,0,3.43,2.7,1.19,6l-2.84,4.17C497.61,1309.37,493.48,1312,490.63,1312Z" transform="translate(-265.1 -511)"/><path class="cls-3" d="M645.4,1312H593.29c-3.67,0-5.48-2.72-4-6l1.83-4.17a10.71,10.71,0,0,1,9.06-5.82h50.77c3.58,0,5.64,2.6,4.57,5.82l-1.39,4.17A9.69,9.69,0,0,1,645.4,1312Z" transform="translate(-265.1 -511)"/><path class="cls-3" d="M721.4,1312H669.29c-3.67,0-5.48-2.64-4-5.87l1.89-4.17a11.29,11.29,0,0,1,9.47-6h52.74c3.72,0,5.4,2.69,3.76,6l-2.1,4.17A11.81,11.81,0,0,1,721.4,1312Z" transform="translate(-265.1 -511)"/><path class="cls-3" d="M800,1312H746.72c-3.75,0-6-2.66-5-5.91l1.27-4.17c1-3.26,4.88-5.92,8.64-5.92H804.9c3.76,0,6,2.66,5,5.92l-1.29,4.17C807.62,1309.34,803.72,1312,800,1312Z" transform="translate(-265.1 -511)"/><path class="cls-3" d="M1305,1495H777c-7.14,0-11.5-5.81-9.7-12.83l14.84-58C783.72,1418,790.4,1413,797,1413h488c6.6,0,13.28,5,14.87,11.21l14.84,58C1316.51,1489.19,1312.16,1495,1305,1495Z" transform="translate(-265.1 -511)"/></g></svg>