<svg xmlns="http://www.w3.org/2000/svg" viewBox="0 0 1691.4 2226.28"><defs><style>.cls-1{fill:#423144;}</style></defs><title>[6b]logo</title><g id="Layer_1" data-name="Layer 1"><polygon class="cls-1" points="434.39 398.74 429.52 917.67 325.66 917.67 325.66 402.01 434.39 398.74"/><polygon class="cls-1" points="480 399.54 480 917.67 452.63 917.67 452.63 400.07 480 399.54"/><polygon class="cls-1" points="649.67 604.41 649.67 917.67 522.69 917.67 522.69 394.69 624.13 493.12 624.13 557.85 649.67 604.41"/><path class="cls-1" d="M1190.82,548.93c-2.23,2.07-4.47,4.12-6.71,6.19,5.37,2.48,5.37,12.38,4,17.34-1,3.53-14.89,7.07-22.79,8.81v449.41h-39.73V581.94c-6.38-1.29-24.93-5.39-26-9.49-1.34-5-1.34-14.86,4-17.34l-6.71-6.19c0-1.49,0-3.62,0-6.19.13-9.77-.05-14.76,1.34-17.34,2.68-5,10.74-12.38,10.74-12.38V498.15s16.11-3.72,21.48-3.72V348.3h5.37v-135h5.37V113h5.34V213.31h5.37v135h5.37V494.44c5.37,0,21.48,3.72,21.48,3.72V513s8.05,7.43,10.74,12.38c1.4,2.58,1.22,7.57,1.34,17.34C1190.86,545.31,1190.85,547.44,1190.82,548.93Z" transform="translate(-297.62 -113)"/><polygon class="cls-1" points="746.36 386.77 746.36 917.67 682.51 917.67 682.51 459.75 713.78 459.75 713.78 400.07 746.36 386.77"/><polygon class="cls-1" points="1365.75 407.48 1365.75 917.67 1261.83 917.67 1257.01 404.21 1365.75 407.48"/><rect x="1459.45" y="2225.77" width="88.74" height="0.51"/><polygon class="cls-1" points="1238.77 405.55 1238.77 917.67 1211.4 917.67 1211.4 405.02 1238.77 405.55"/><polygon class="cls-1" points="1168.71 400.16 1168.71 917.67 1041.73 917.67 1041.73 609.88 1067.28 563.32 1067.28 498.59 1168.71 400.16"/><polygon class="cls-1" points="1008.89 465.22 1008.89 917.67 945.04 917.67 945.04 392.25 977.62 405.55 977.62 465.22 1008.89 465.22"/><polygon class="cls-1" points="427.64 932.27 426.11 1094.64 325.66 1094.64 325.66 932.27 427.64 932.27"/><rect class="cls-1" x="452.63" y="932.27" width="27.37" height="162.37"/><rect class="cls-1" x="522.69" y="932.27" width="126.98" height="162.37"/><rect class="cls-1" x="825.54" y="932.27" width="43.97" height="162.37"/><rect class="cls-1" y="932.27" width="136.1" height="350.28"/><rect class="cls-1" x="164.2" y="932.27" width="114.21" height="162.37"/><rect class="cls-1" x="682.51" y="932.27" width="63.85" height="162.37"/><polygon class="cls-1" points="1365.75 932.27 1365.75 1094.64 1265.26 1094.64 1263.74 932.27 1365.75 932.27"/><rect class="cls-1" x="1211.4" y="932.27" width="27.37" height="162.37"/><rect class="cls-1" x="1555.3" y="932.27" width="136.1" height="350.28"/><rect class="cls-1" x="1041.73" y="932.27" width="126.98" height="162.37"/><rect class="cls-1" x="1405.7" y="932.27" width="114.21" height="162.37"/><rect class="cls-1" x="945.04" y="932.27" width="63.85" height="162.37"/><path class="cls-1" d="M429.52,746.72A123.15,123.15,0,0,1,397,720.56c-18.26-20.71-25.83-43.6-29-59.42V563.59L355.31,572a128,128,0,0,0-57.69,105.29v353.4h136.1V749.08Z" transform="translate(-297.62 -113)"/><path class="cls-1" d="M583.3,629.29A140.32,140.32,0,0,0,574.58,589c-11.95-31.65-33-52.34-48.51-64.13l-13.17-10V627a138.39,138.39,0,0,1-22.48,37.07,136.12,136.12,0,0,1-18.24,17.7l-3.06,2.46v346.4H583.32V629.83Z" transform="translate(-297.62 -113)"/><polygon class="cls-1" points="1555.3 483.47 1555.3 917.67 1563.51 917.67 1571.72 917.67 1674.98 917.67 1683.19 917.67 1691.4 917.67 1691.4 406.84 1555.3 483.47"/><path class="cls-1" d="M1719.74,1030.67h97.79l-3.06-479.82c-6.64-5.33-40.72-30.52-40.72-30.52l-70.4,26.87,0,88.1v395.37h16.42Z" transform="translate(-297.62 -113)"/></g><g id="Layer_3" data-name="Layer 3"><path class="cls-1" d="M1059.19,1250.72h4.55q75.73,0,151.46-.06a9.56,9.56,0,0,1,7.65,3.14c6.66,7,13.51,13.73,20.4,20.45a8.29,8.29,0,0,1,2.84,6.46q-.11,81.42,0,162.84a7.94,7.94,0,0,1-2.54,6.16c-4.16,4.09-8.16,8.34-12.21,12.55-.79.82-1.49,1.73-2.49,2.89,4.34,4.34,8.37,8.76,12.82,12.71,3.35,3,4.48,6.18,4.47,10.65q-.23,83.39,0,166.78a11.4,11.4,0,0,1-3.83,9.14c-6.88,6.52-13.51,13.32-20.14,20.09a7.36,7.36,0,0,1-5.72,2.46q-77-.1-154.09-.06c-1,0-2-.14-3-.21C1058.48,1683.44,1058.26,1256.62,1059.19,1250.72Zm49.56,237.37v152.16c5.24.94,84,.7,87.16-.22V1488.09Zm0-47c4.74,1,83.89.81,87.09-.11.83-6.22.51-140.71-.36-143.84h-86.73Z" transform="translate(-297.62 -113)"/><path class="cls-1" d="M672.8,1372.27H623.23v-75.09H526.55c-.95,3-1.37,135.68-.37,144.36,1.72.05,3.55.15,5.37.15,36.49,0,73,.07,109.46-.09a11.79,11.79,0,0,1,9.5,4c6.52,6.89,13.32,13.51,20.08,20.17a7.35,7.35,0,0,1,2.52,5.69q-.11,92.82,0,185.65a7.36,7.36,0,0,1-2.46,5.72q-10.93,10.74-21.66,21.68a7.84,7.84,0,0,1-6.17,2.46q-68.3-.09-136.61,0a8.22,8.22,0,0,1-6.54-2.62c-7-7.23-14.16-14.32-21.36-21.37-1.8-1.76-2.83-3.62-2.56-6.15a24.61,24.61,0,0,0,0-2.63q0-185.43-.07-370.86c0-4.23,1-7.37,4.19-10.34,6.94-6.46,13.52-13.31,20.16-20.08a6.88,6.88,0,0,1,5.37-2.25q69,.08,137.92,0a6.9,6.9,0,0,1,5.39,2.2c7.36,7.5,14.82,14.9,22.27,22.31a6,6,0,0,1,2.1,4.54q-.1,45.1-.06,90.2C673,1370.63,672.89,1371.33,672.8,1372.27Zm-50.05,268.27c.9-7,.6-149.14-.25-152.27-5.92-.94-93.48-.59-96.39.36v151.91Z" transform="translate(-297.62 -113)"/><path class="cls-1" d="M1608.51,1564.65H1658v75.82c11.12.67,21.85.21,32.56.29s21.31,0,32,0h32.25c1-3.47,1.2-147.58.19-152.94h-5q-55.16,0-110.32.06a10,10,0,0,1-8-3.25q-9.82-10.29-20.12-20.12a10.09,10.09,0,0,1-3.28-8q.12-84.05.08-168.11c0-3.78-.7-7.94.64-11.22,1.28-3.13,4.77-5.37,7.34-7.95,5.24-5.28,10.6-10.45,15.74-15.83a8.15,8.15,0,0,1,6.5-2.73c23.35.1,46.7.06,70,.06,22.18,0,44.36,0,66.54-.05a8.23,8.23,0,0,1,6.54,2.65c7,7.23,14.17,14.31,21.34,21.38a7.35,7.35,0,0,1,2.54,5.69c-.09,29.62-.06,59.25-.07,88.87,0,1.14-.15,2.27-.25,3.67H1755.6v-75.79h-96.7c-.91,3.11-1.26,137.1-.32,144.4,1.73.06,3.57.16,5.4.16,36.63,0,73.25.07,109.88-.08a10.93,10.93,0,0,1,8.74,3.71c6.55,6.85,13.31,13.52,20.1,20.14a8.25,8.25,0,0,1,2.79,6.47q-.13,92.37,0,184.74a8.24,8.24,0,0,1-2.73,6.49q-10.66,10.38-21.05,21a8.27,8.27,0,0,1-6.48,2.78q-68.29-.13-136.58,0a8.22,8.22,0,0,1-6.55-2.6c-7-7.24-14.14-14.33-21.35-21.37a7.85,7.85,0,0,1-2.52-6.15q.1-44,.05-88C1608.26,1567.58,1608.41,1566.29,1608.51,1564.65Z" transform="translate(-297.62 -113)"/><path class="cls-1" d="M1024.76,1686.78H972.84l-56.28-179.62-1,0-55.71,179.56H808.94c.58-1.75,1.06-3.25,1.57-4.73q36.58-107,73.21-214a11.35,11.35,0,0,0,.08-8q-35.42-102.3-70.65-204.66c-.47-1.35-.86-2.73-1.38-4.42H862.6l53.43,170,1.1,0c9.09-28.2,18-56.47,26.93-84.71s18-56.68,27.1-85.27h51.35c-.52,1.64-.9,3-1.39,4.36q-36.76,102.53-73.59,205a12.69,12.69,0,0,0,0,9.22q37.84,105.86,75.51,211.78C1023.61,1683,1024.09,1684.68,1024.76,1686.78Z" transform="translate(-297.62 -113)"/><path class="cls-1" d="M1452.71,1296.87H1381.3c-.11-15.48,0-30.43-.05-45.28,3.41-1,186.65-1.34,192.54-.38v45.32c-4.5.69-9.13.23-13.73.31-4.81.08-9.63,0-14.45,0h-43c-.29,13.3-.1,26.23-.13,39.16s0,26,0,39v311.1c-3.35,1-41.64,1.36-49.69.47-.22-14.29-.07-28.67-.09-43s0-28.89,0-43.34v-303.3Z" transform="translate(-297.62 -113)"/><path class="cls-1" d="M725.54,1250.89H774a6.11,6.11,0,0,1,.55.46.78.78,0,0,1,.21.36,19.62,19.62,0,0,1,.3,2.59q0,215.14,0,430.29a8.59,8.59,0,0,1-.31,1.64c-3.23.85-42.35,1.14-48.91.39C724.9,1683.6,724.56,1257.94,725.54,1250.89Z" transform="translate(-297.62 -113)"/><path class="cls-1" d="M1347,1686.76h-48.66c-.88-3.27-1.16-429.43-.28-435.71h48.71C1347.66,1254.17,1348,1680.37,1347,1686.76Z" transform="translate(-297.62 -113)"/></g></svg>