<svg id="MAPLETREEE" xmlns="http://www.w3.org/2000/svg" viewBox="0 0 1313.22 1017.69"><defs><style>.cls-1{fill:#900d0d;}.cls-2{fill:#cf1b1b;}.cls-3{fill:#423144;}</style></defs><title>[6b]tree</title><path class="cls-1" d="M816.58,673.62C813,670,812,665,808.86,661.47c-1.89-2.88-3.77-5.73-5.18-7.87L801.33,650s.52-2.63,2.18-2.51c.41,0,1.46,1.46,2.79,3.59s3,5,4.52,7.79C813,663,814,667,817,671c0-2,0-5,1-7.2.54-3.35,1.19-6.65,1.54-6.79.69-.28,1.14,2.75,3.08,3.56s1.33-4.58,3.51-7.09,12.49-6.78,14.38-10-1.52,11.89-1.06,14.93,9.55,1.68,14.36-.31,2.35-.17,2.35-.17-1.26-1.09-1.09,1.26,11.54,6.49,13.88,6.32S856.75,677,855.09,676.88s14.22,11,19,9c0,0-7.84,2.44-7,4.5s8.1,7.91,8.1,7.91-2.63-.52-1.78,1.54,4.9,6,4.9,6-8,.1-12.13,1.8C862,710,865,713,865,715c-4-4-10-6-12-4-6,4,1,14,4,20h-4c-3,4-4,8-4,13-6-5-14-3-18,3-2-4-2-12-6-12-5,0-5,8-5,13,0-2-2-2-3-2-3,2-7,2-8,6-7-3-5-10-10-14-2-3-6-5-10-2,4-6,9-14,4-21-3-5-10,0-15,1-1-7-9-3-13-3,2-8,17-18,5-23,6-2,13-1,15-7,2-5-5-6-8-10,10-4,24-9,32.76-3.38C813.15,671.55,816.58,673.62,816.58,673.62Z" transform="translate(-357.04 -637.31)"/><path class="cls-2" d="M424.22,903.51C422,899,418,896,416,891c0-1,2-1,3-1,4,3,3,8,6,11a83.2,83.2,0,0,1,8.25-14.86c1.63-2.2,3.31-4.36,5-6.53s3.28-4.36,4.78-6.61c-2,3,0,8-2,11,5-1,7-6,10-9,0,1,0,2-1,2,3,2,5-2,8-1-4,4-4,10-8,13,4,0,8,1,11-2-7,4-1,9,3,12a56.82,56.82,0,0,0-6.38,4.88C456,912,449,909,446,916c-2,5,4,11,2,15-3,7-2,15-1,23-10-6-17,1-21,10-2-5,0-11-4-16-8,13-14,34-30,29-1-1,7-11,1-13-5-3-9,3-13,6,3-9,20-22,11-28-6-4-13,13-17.73,7-1.06-.07-5,2.46-8.69,5.1s-7.08,5.27-7.08,5.27,1.85-2.35,3.93-5.3a53.11,53.11,0,0,0,5.36-8.85C370,938,377,935,380,929c-3,0-2-5-5-4,6-3,13-5,18-10,4-5-2-6-5-9,9-2,18-1,26.83-4.29A21.62,21.62,0,0,1,424.22,903.51Z" transform="translate(-357.04 -637.31)"/><path class="cls-2" d="M862,1523.27c1-10.27,14-14.27,8-27.27l-9,24c-2-7,0-14-4-20-1-1-2,1-2,2a96.11,96.11,0,0,0-7.87-14.61c-1.56-2.08-3.22-4-4.92-5.94s-3.45-3.7-5.2-5.45a19,19,0,0,1,1.5,6.5,19,19,0,0,0,1.5,6.5c-2.5,1-4.5.25-6.38-1s-3.63-3-5.65-4c-3.76-2.86-1.84-.79-1.84-.79s.95-.53.88,1.29-8.79,2.06-10.54,1.28c-.87-.38,1.53,2.95,4.31,6.43s6,7.18,6.66,7.45-2.2,1.46-5.73,2.28-7.69,1.22-9.57-.5c0,0,6.21,4.9,5.5,6.55s-6.75,4.69-6.75,4.69,2.15.47,1.4,2.19-4.22,4.16-4.22,4.16,1.67.84,3.78,2.15C816,1525,823,1529,819,1535c2.5,0,5.5-.5,8-.37,4-.63,6,4.37,6,7.37a32.92,32.92,0,0,1-6,19c12,3,9,17,12,25,9-8,19,2,22,11,1-7,0-16,6-22,7,8,9,18,9,28a10.07,10.07,0,0,1,1-3c9,1,8,12,13.07,17l4.1,7.34s3.7-6.76,8.83-2.71a111.25,111.25,0,0,1-2.72-11.12c-1-5.6-1.36-11.27,1.34-11.63s6.87,3,10.33,6.51a88.23,88.23,0,0,1,6.24,7s-5.38-10.59-10.26-21.51c-1.63-3.64-3.2-7.31-4.49-10.64-2.44-3.26-3.45-8.24-2.44-11.29,0-3,3,0,5.27.74a86.9,86.9,0,0,1,8.37,7.47c5.72,5.66,10.94,11.65,10.94,11.65s-1.07-4.15,1.63-4,20.65,14,20.65,14-9.72-12.37-12.23-18.6c-2.41-6-16.93-19.37-16.61-22.86s5.3-4.21,5.3-4.21a82,82,0,0,1-7.47-4.14c-2.15-1.33-4.59-2.95-7.06-4.78C905,1542,896,1539,901,1532c2-2,5-2,6-4a117.2,117.2,0,0,0-38.87-5.52C865,1523.05,862,1523.27,862,1523.27Z" transform="translate(-357.04 -637.31)"/><path class="cls-2" d="M1129.17,1624.34C1127,1620,1123,1617,1121,1613c10,14,18,2,30-5,0,3-6,5-2,6,4,2,8-1,11-3a3.49,3.49,0,0,1-1,2c2,2,5,1,8,1-3,3-8,3-10,7,4,2,8,2,12,2-2,0-3,1-5,2,2,3,5,5,7,8-4,1-11-1-10,5-3-2-9-3-11,1-1,3,3,7,2,7-6,6-8,9-18,6-2,0-3,2-4,3-1-3-1-7-4-9-4-2-7,3-6,7-1-1-2-3-4-3-3,1-7,3-10,2-4-4-4-15-13-11,2-3,8-4,8-8-1-8-11-1-16.26-5.11-1.79-.66-12,.26-12,.26s5-2.36,6-4.17c2.25-3,7.25-1,9.25-4,1-2-3-2-4-4,3,.5,5.75,1,8.51,1.5,3.49.5,5.49.5,8.49,1.5,0-5-5-5-7-8a241.48,241.48,0,0,1,25.49,8.2C1119.37,1618.83,1129.17,1624.34,1129.17,1624.34Z" transform="translate(-357.04 -637.31)"/><path class="cls-1" d="M607.47,885s-3-4.6-6-9-6-8.71-6-8.71.36-2,1.64-2c.64,0,3.32,4.34,5.84,8.67s4.91,8.81,4.91,8.81,1.22-10.19,1.75-10.42.92,2.1,2.44,2.7.95-3.55,2.59-5.53,9.53-5.43,10.94-7.93-1,9.2-.58,11.54,7.4,1.14,11.08-.47,1.81-.17,1.81-.17-1-.82-.82,1,9,4.82,10.82,4.66c.9-.08-1.39,2.18-4.08,4.45s-5.76,4.56-6.4,4.53,2.15,2,5.56,3.91,7.44,3.55,9.28,2.75c0,0-6,2-5.32,3.59s6.38,6,6.38,6-2-.36-1.35,1.22,3.88,4.56,3.88,4.56-6.18.21-9.32,1.75C645,913,644,914,646,916c-4,0-9-6-11-2-3,5,1,11,5,16-7-3-6,7-7,11-5-4-13-3-15,4-2-4-2-13-7-12-3,1-2,8-2,13,0-2-2-2-3-2-4,6-5,6-11,4,3-3,0-5-1-8,0-3-6-4-8-1,1-7,7-14,2-20-2-3-6,2-10,3a3.67,3.67,0,0,0-1-3,7.5,7.5,0,0,0-9,0c1-6,14-15,4-20,4-1,8-1,11-4,4-6-5-6-6-10,7-2,13-4,20.13-5.22C596.9,879.23,607.47,885,607.47,885Z" transform="translate(-357.04 -637.31)"/><path class="cls-1" d="M1075.89,1243.1l8.49-20.73s2-.86,2.71.32-9.18,19.55-9.18,19.55,9.62-4.64,10.13-4.31-1.34,2-1,3.73,3.72-1.21,6.43-.89,10.37,5.35,13.42,5.16-8.78,4.47-10.63,6.17,3.27,7.26,6.84,9.61,1.2,1.52,1.2,1.52.16-1.36-1.36-.16.92,10.84,2.12,12.35-13.4-3-14.09-4.13-.91,14.74,2.66,17.09c0,0-5.28-4.2-6.29-2.67s-1.63,9.16-1.63,9.16-.86-2-1.87-.49-1.82,6.11-1.82,6.11-3.77-5.39-6.83-7.4-5.23,2.41-5.23,2.41-.4-8.3-1.61-12-11.62,9.91-12.61,13.64c0,0,.32-2.71-1.21-3.72s-10.82,3.13-10.82,3.13,1.8-8.31-.59-11.35-7-1.64-7-1.64,9.91-11.76,9.38-14.3-11.84,2.46-14.19,6c0,0,1.84-3.91.48-4.07s-9.83-.61-9.83-.61,1.66-4.76,0-6.61c0,0,7.6-3.78,7.23-7.67s-6-5.38-6-5.38,16.92-3.51,17.39-7.58-10.72-7-10.72-7a3.2,3.2,0,0,0,1.17-2.89c-.35-1.69-6.65-6.56-6.65-6.56s4.91.3,7.28-1.07,9.16,1.63,10.5-.41,1-5.94,1-5.94,4.28,5.73,9.88,7.21,3.69-5.62,4.5-10.2c0,0,12.25,8,13.47,11.76s2.9,3.37,3.24,2.86S1075.89,1243.1,1075.89,1243.1Z" transform="translate(-357.04 -637.31)"/><path class="cls-1" d="M1203.56,1468.07l18.33-15.09s2.32.21,2.37,1.66-18.38,13.64-18.38,13.64,11.31.5,11.62,1.07-2.28,1.23-2.8,3,4.08.74,6.45,2.4,7,10.2,9.94,11.55-10.44-.24-13,.43-.59,8.42,1.57,12.4.36,2,.36,2,.83-1.19-1.19-.83-4.58,10.58-4.22,12.59-11-9.49-11.08-10.93-8.25,13.31-6.09,17.29c0,0-2.82-6.57-4.53-5.64s-6.12,7.73-6.12,7.73.21-2.32-1.49-1.4-4.77,4.79-4.77,4.79-.81-6.93-2.66-10.34-6.1-.38-6.1-.38,3.79-7.95,4.53-12-15.82,3.42-18.62,6.4c0,0,1.66-2.37.74-4.08s-11.67-2.51-11.67-2.51,5.86-6.85,5.15-10.89-5.67-5-5.67-5,15.16-6,15.94-8.63-12.29-3.65-16.27-1.49c0,0,3.68-2.73,2.49-3.56s-8.87-5.5-8.87-5.5,3.94-3.61,3.27-6.19c0,0,9,.28,10.6-3.53s-2.87-8-2.87-8,17.55,5.22,20,1.66-6.48-12-6.48-12a3.39,3.39,0,0,0,2.54-2.11c.52-1.76-2.92-9.46-2.92-9.46s4.44,2.75,7.33,2.66,7.73,6.12,10,4.89,3.89-5.05,3.89-5.05,1.12,7.49,5.6,11.69,6.26-3.39,9.32-7.26c0,0,7.4,13.66,6.67,17.74s1,4.6,1.59,4.29S1203.56,1468.07,1203.56,1468.07Z" transform="translate(-357.04 -637.31)"/><path class="cls-2" d="M1175,997.4c1-5.4,1-11.4,2.83-16.83L1180,969.3l1-5.12s-1.82-2.73-3.64-1.82c-.45.23-1,2.33-1.48,5.36s-1,7-1.47,10.91C1175,984,1173,989,1173,994c-2-2-2-5-4.35-6.58-2.19-3.44-4.46-6.85-4.92-6.85-.91,0,0,3.64-1.82,5.46s-3.64-4.55-7.28-6.37-17.29-1.81-20.94-4.54,7.29,12.74,8.2,16.38-10,6.38-16.38,6.38-2.73.91-2.73.91.91-1.82,1.82.91-10,12.75-12.74,13.66c-1.36.46,3.41,2.27,8.76,3.86s11.26,3,12.18,2.5-1.82,4.32-5.57,9.22a52.53,52.53,0,0,1-6.07,6.79c-2.06,1.86-4.05,3.12-5.64,3.12,0,0,10-.92,10,1.82s-5.45,12.74-5.45,12.74,2.73-1.82,2.73.91-2.73,9.1-2.73,9.1,2.27-.91,5.23-1.82a35.57,35.57,0,0,1,9.33-1.83c5.48,0,4.55,7.28,4.55,7.28a55.89,55.89,0,0,1,4.4-5.19c2.4-3.86,8.4-6.86,10.4-4.86,7,6,2,16,2,24,0-3,4-1,5-3,9,9,10,13,22,5,4-3,9,0,13,2,2-6,2-14,7-16,6-1,7,6,7,11,0-2,2-4,3-5,3,0,7,4,10,2,7-6,0-12,3-21,2-3,4-6,9-5-5-4-9-10-13-15-4-6-1-14,7-11.83a49.31,49.31,0,0,1,8.43,1.88s-.91-2.73.91-4.55,13.65-2.74,13.65-2.74-6.37-3.64-8.2-7.28-12.74-5.45-12.75-9.09,3.64-8.19,3.64-8.19-10,3.65-18.2.92,0-10,2.72-16.38c0,0-12.29,0-20.35,1.55-2.69.51-4.91,1.2-6,2.11-4.55,3.64-6.37,1.82-6.37.91,0-.46-3,3-5.83,6.58S1175,997.4,1175,997.4Z" transform="translate(-357.04 -637.31)"/><path class="cls-1" d="M1333.72,985c-2.72-6-8.72-11-5.72-18,3,5,3,11,6,16,3-8,10-13,17-18,1,4-3,10,0,11,2,1,6,0,9-2,0,1,0,2-1,2,3,3,7,3,10,4-3,4-7,5-10,8,5,2,9,5,14,5-1,2-5,1-4,3,4,3,6,7,10,9-3,0-11,1-8,6-4-1-7-3-10-4-1,6,4,9,6,14-1,0-2-1-3-1-2,2,0,6-2,9-3-3-6-5-10-4-1,1-1,3-2,4-3-4-5-10-9-13a14.83,14.83,0,0,0,0,13c0-2-1-3-3-2-2,2-4,3-4,6-6-1-6-5-9-9a5.29,5.29,0,0,0-8,1c-1-5,2-13-1-14-7-1-11,5-16,2-4-2,7-11,0-15,5,0,9-3,10-6,1-2-2-4-4-6,3-1.5,6.5-2,9.93-2.58s6.59-1.11,9.2-2.85C1325,980.09,1333.72,985,1333.72,985Z" transform="translate(-357.04 -637.31)"/><path class="cls-1" d="M1639.16,918.81C1642,912,1641,904,1648,899c-3,6-3,13-7,18,3-2,6-4,9-5a3.67,3.67,0,0,1-1,3c6-4,12,1,18,0-2,3-6,5-9,8,8,6,7,9,10,18h-14c1,5,1,10,5,13-2-2-5,0-7-1,1,4-2,8-2,12-7-4-15,1-17-9-4,2-8,7-8,12-1-6-6-1-9,0-2-4-2-11-9-9,2-4,7-8,4-11-1-2-6,1-8,4,0-1,1-3-1-4-2,0-4,1-5,0-3-5,2-7,4-12,1-3-4-4-3-5,5-3,12-4,11-8-2-6-7-8-11-14,5-2,16,0,13-8,3,3,8,7,12,4,1-2,0-5,0-8,6,3,10,7,14.74,10.76C1638,907.24,1639.16,918.81,1639.16,918.81Z" transform="translate(-357.04 -637.31)"/><path class="cls-1" d="M1311.83,824.1C1312,816,1301,804,1307,799c2,8,4,15,6,23,0-4,3-7,4-11,1,1,0,5,1,3a55.59,55.59,0,0,1,17-9c-1,5-6,9-4,14,1,5,8,3,12,3a3.49,3.49,0,0,0-2,1c2,5,8,5,11,8a53.88,53.88,0,0,1-13,7c4,5,10,7,16,9-2,1-4,2-6,2,3,5,8,9,10,14-5-2-12-2-13,4-4-2-7-5-11-7-1,7,3,13,2,19a4.27,4.27,0,0,0-3.76-.73,8.18,8.18,0,0,0-2.71,4.45,12.09,12.09,0,0,1-2.24,4.75c-1.72-2.86-3.76-5.78-6.82-7.11s-7.36-.31-8.45,2.85q-.22-4.1-.85-8.16t-1.65-8c-.52-1-.52-3-2.55-.81a21.29,21.29,0,0,0-4.83,14.4,8.11,8.11,0,0,0-1.3-2.9,1.27,1.27,0,0,0-.77-.6,1.38,1.38,0,0,0-1,.47l-7.39,6.39a8.7,8.7,0,0,0-5-5.14,17.41,17.41,0,0,0,1.56-6.42c0-2.21-1.12-4.56-3.16-5.43-2.24-1-4.78.09-7,1.12a59.43,59.43,0,0,0,7.61-14.51c.53-1.47.92-3.33-.21-4.42a4,4,0,0,0-3.35-.64,24.45,24.45,0,0,0-9.72,3.55c.32-2.18-2.24-3.75-4.44-3.76s-4.36.88-6.56.7a47.64,47.64,0,0,1,9.83-11.27,6.14,6.14,0,0,0,1.87-2.09c1-2.3-1.2-4.65-3.17-6.2a22.52,22.52,0,0,0,12-1.45c1.39-.58,2.92-1.58,3-3.08a4.38,4.38,0,0,0-1.36-2.75l-4.81-5.69c.44.53,9-1.33,10.24-1.43,2.59-.22,6.28-.83,8.67.46,4.42,2.48,5.42-2.52,8.91,3.92C1309.7,821.7,1311.83,824.1,1311.83,824.1Z" transform="translate(-357.04 -637.31)"/><path class="cls-1" d="M1514.84,1433.13s.89-1.61,2.23-4l4.9-8.69,7.14-12.62s2.74-.78,3.43.85c.34.81-3.4,6.72-7.22,12.42-1.91,2.85-3.85,5.65-5.3,7.74l-2.43,3.49s3.28-1.12,6.63-2.16,6.78-2,7.08-1.76c.6.51-2.05,2.41-1.87,4.67,5.59.92,11.59-1.08,16.41,4.49,3.18,2.06,6.42,4.05,8.39,4.18s-1,1.2-4.85,2.54C1546,1446,1540,1446,1539,1451c0,6,6,10,10,14-1,0-2-2-3,0-2,6-1,12,1,18-6,0-12,0-17-3-1,7-5,16,1,22-3,0-6-4-7-2-4,6-7,8-10,14-3-4-6-9-11-9-1-1-3-1-4,1-1-5,3-15-3-15s-11,5-16,10c1-6-5-7-8.6-5.86a46,46,0,0,0-6.54,1.31,43.71,43.71,0,0,0,1.51-5.73c.59-3.13.87-6.8-.42-8.94-2.58-4.28-8.67-3.24-8.67-3.24s3.66-3.37,7.29-7.16,7.23-8,7.09-9.66-4-1.38-8.35-.13-9.05,3.45-10.85,5.55c0,0,3-4.72,1.28-5.15s-12.53-2.38-12.53-2.38,2.91-5.84,1-8.49c0,0,10.37-3.62,10.53-8.68s-6.79-7.88-6.79-7.88,22.3-1.76,23.57-6.9-12.63-10.78-12.63-10.78a4.14,4.14,0,0,0,2-3.52c-.18-2.23-7.48-9.51-7.48-9.51s6.26,1.19,9.52-.19,11.5,3.58,13.55,1.18,2.22-7.47,2.22-7.47,4.56,8.05,11.51,10.87,5.65-6.61,7.44-12.36c0,0,14.43,12.32,15.38,17.3s3.18,4.8,3.7,4.2c.26-.3.29,3.62.25,7.62S1514.84,1433.13,1514.84,1433.13Z" transform="translate(-357.04 -637.31)"/><path class="cls-3" d="M1668.42,893.79a3.35,3.35,0,0,0-.8-.13c-.75-.45-3-1.33-9.62-2.66-10-2-64-27-104-38s-110,3-138,5-63,57-92,62-133-16-136-19-5-23-1-39c3.85-15.4,35.49-30.8,37.86-31.93l.29-.09c3.74-.54,76.24-11.18,90.85-19s30-28.68,31-29.94l.08-.13c.32-.68,2.78-6.06,0-7.93-2.61-1.74-6.73-1.21-7.76-1a1,1,0,0,0-.43.18l-9.71,6.8-.17.15C1299.94,811,1269,799,1255,800s-60,18-70,24-21,32-23,37c-1.8,4.49-2,33.95-2,39.94a1.06,1.06,0,0,1-1.08,1.05c-167.62-1.42-226.52,70.45-239.15,89.45a1,1,0,0,1-.89.47c-.76,0-70.58,20.46-81.88,24.09-47.07,15.12-38.33,47-82,61-66.21,21.21-179.68-22.15-180.38-22.11a1,1,0,0,1-.49-.08,1,1,0,0,1-.3-.2c-12-11.42-36.48-40.12-28.84-77.61,9.76-47.85,110.11-137.65,114.83-141.85a1,1,0,0,0,.26-.36c1.27-3.13,17-39.55,43.8,9a1,1,0,0,1,.12.44c.12,3.28,1.86,41.12,21,48.77,19.89,8,52.65-1.89,70.71,0a1,1,0,0,0,.55-.09c1.91-.9,14.45-6.06,33.75,3.13,21,10,24,15,28,14s15-5,15-12-35-16-35-16-26-6-44-5-49-11-56-22-18-43-38-56c-19.08-12.4-56.36-46.64-59.75-49.77a1,1,0,0,1-.32-.57c-.59-3.1-4.17-26.33,20.07-35.66,26-10,43-17,46-22s36-13,47-13,52.75-7,66.87-33.76a1,1,0,0,0,.12-.51c0-.93-.15-4-1-5.73-1-2-7,1-7,1s-38,20-51,20-77,7-85,11-64,13-72,54c-7,36,.6,53.5,2.56,57.23a1,1,0,0,1-.28,1.32c-5.18,4-37.19,29-58.28,57.45-23,31-81,97-78,137,2.85,38,34.08,68.75,19.39,86.62-2.31,2.8-4.59,3.91-9.39,6.38-54.47,28-121.15,71.38-122.25,71.75a1.05,1.05,0,0,0-.71,1.05L374.85,1500c.32.12.25,24.79,1.15,25,42,10,68.09-188.52,178-241,51.36-24.52,54.47,9.35,197-12,95.43-14.3,143.15-21.45,167-55,57.8-46.34,75.62-66.53,76.54-74.56.08-.68.31-3.66,2.46-5.44,6.39-5.3,23.24,5.27,26,7,30.85,19.34,29.88,44.75,45,86,10.16,27.7,41.64,48.59,46.39,51.62a1.05,1.05,0,0,1,.46,1.09C1103.22,1342.24,1131,1372,1135,1381c3.82,8.61,53.36,42.81,57.7,45.79a1,1,0,0,1,.4.56c1.32,4.59,15,52.32,17.9,65.65,3,14,37,22,47,18s3-12,3-12c-4-4-6-14-18-24s-18-45-24-65-50-39-63-47-20-70-11-69,30-1,66,4,81-10,92-4,51,28,68,35,76,17,78,21c1.86,3.73,43.69,21.36,49.36,23.73a1,1,0,0,1,.63,1c-.61,53.57,43,84.32,51,88.3s99.6,34.21,102,35l.08,0c.42.2,4.08,1.87,6,0s-3-8-3-8c-1.92-4.81-28.81-20.71-30.87-21.93l-.27-.11c-84.86-20-89.86-77-93.85-101s-33-27-37-27c-2.34,0-8.46-3.43-13.13-6.28-1-.58-.45-1.79.65-1.95.1,0-1.26-.47-5.52-1.78q-.78-.24-1.6-.53c-13-4.63-32.69-18.87-63.4-52.47-32-35-138-53-144-57s-1-20-1-24,14-4,27-12c12.36-7.61,111.52-22.45,121.23-23.89a1,1,0,0,0,.88-.9c.23-1.76.67-6.09-.11-9.21a7.27,7.27,0,0,0-5-5c-9-3-42,5-62,13s-88,11-104,15-5,47-7,49,2,1-16,1c-17.11,0-65-40.68-69.63-44.68a1,1,0,0,1-.35-.8c.15-5.87,1.27-63.54-12-82.52-14-20-57-31-88-38s-57-28-58-33,1-5,10-15,134-38,166-36,122,6,168,5,39-26,42-35,10-29,20-45,20-10,31-21,67-4,91-4c23.57,0,140.71,30.87,144.89,32l.21.08a4.25,4.25,0,0,0,3,.25C1670.51,904.62,1671.29,895,1668.42,893.79Z" transform="translate(-357.04 -637.31)"/><path class="cls-2" d="M670.57,848.91s-.21-2.23-.51-5.54-.68-7.71-1.07-12.11l-1.55-17.62s2.22-2.68,4-1.52c1.36.87,1.4,19.61,1.33,28.92,0,3.1-.05,5.16-.05,5.16s2.53-3.37,5.19-6.73,5.43-6.71,5.91-6.65c1,.1-.4,3.84,1.32,6s4.34-4.39,8.38-5.91,18.43,0,22.57-2.48S707,843,705.68,846.73s9.85,7.82,16.56,8.52,2.78,1.26,2.78,1.26-.25-.67-.71-.71-1.09,1-1.31,1.47c-1.19,2.51-.61,4.64-1,7.73a18.78,18.78,0,0,1-1,4c-2.14,5.7-7.11,9.17-8.85,8.47-.07,0-.12-.05-.15,0-.87.47,9.79,21.41,16.26,22.09,0,0-10.45-2.07-10.75.81s4.35,14,4.35,14-2.68-2.22-3,.66,1.87,9.9,1.87,9.9-2.3-1.21-5.31-2.49C708,919,701,920,700,928c1-8-5-13-9-10-10,9-12,29-27,29-4,0-7-12-14-13,2-5,6-13,0-15-7-3-14,4-18,9,1-8-7-6-10.71-4.25-3.35,1.32-6.41,2.7-6.41,2.7s-1.11-7.88-4.85-9.24a40.89,40.89,0,0,0,3.55-6.05C617,905,615,896,607.23,897.64a19.85,19.85,0,0,0-4.88.34s1.32-1.07,3.28-2.78,4.54-4,7.07-6.55C616,884,625,879,620,873c-2-2-6-3-9.66-1.59a62.58,62.58,0,0,0-9.22,1.22s1.26-2.78-.46-4.9-14.09-4.39-14.09-4.39,7.12-3.13,9.44-6.77,14-4.35,14.44-8.19-2.93-9-2.93-9,10.15,4.94,19.09,3,1.11-10.55-1.07-17.57c0,0,23,2.41,27.42,6.75s6.51,2.62,6.62,1.66a0,0,0,0,1,0,0c.13-.09,1.46,1.63,5.69,7.88C666.69,843.09,668.42,845.68,670.57,848.91Z" transform="translate(-357.04 -637.31)"/><path class="cls-2" d="M1377.81,991.18C1374,987,1372,982,1368,977.86a26.72,26.72,0,0,1-4-7A9.08,9.08,0,0,1,1364,964c2.5,4,4.75,8,7,12,1.13,2,2.25,4,3.41,6s2.34,4,3.6,6.12c1-2.06,1-4.36,1-6.62s0-4.51,1-6.51l3,3c3-9,9-15,16-22,2,6-5,14,1,17,4,2,10-2,14-5-2,3,0,5,1,7,3,3,8,2,12,0-1.5,2.5-4,4.5-6.37,6.38S1416,985,1415,987c4,6,11,7,18,8-3,0-5,2-7,3,4,7,7,9,11,16-5,0-10,2-13,6-1,2,0,3,1,5-5,0-11-5-13-1-3,7,2,14,6,21-7-2-6,9-8,13-5-3-13-5-17,1-4-5-4-15-9-16-4,0-3,10-3,15,0-3-2-3-4-4-1,3-4,5-6,5-7,0-6-9-9-14-2-4-8-6-11-2,2-5,3-10,5-16,1-5-6-10-10.22-5a42.4,42.4,0,0,0-5.5,4.27,3.79,3.79,0,0,0-2.18-3c-1.92-.7-10.76,2.6-10.76,2.6s3.38-4.76,3.47-8c0-1.62,1.89-3.67,3.57-5.64,5.61-3.22.61-8.22-2.39-10.22,5-1,13,1,14-6,1-4-5-6-8-9,8.25-1.5,17.63-3,25.67-1.67a25.11,25.11,0,0,1,7.51,2.41C1374.52,989.54,1377.81,991.18,1377.81,991.18Z" transform="translate(-357.04 -637.31)"/><path class="cls-2" d="M1007.39,1165.09c.92-4.78,1.3-9.44,1.83-15l1.26-10,.57-4.52s2.26-1.77,3.52-.52c.32.31.17,2.2-.24,4.86s-1.06,6.08-1.75,9.46c1.08,4.71-4,9-2.42,14,1.15-2.17,3.63-2.94,4.85-5,2.72-2.29,5.54-4.5,5.92-4.38.76.25-1,3,0,5s4.27-2.79,7.79-3.3,14.86,3.21,18.63,1.94-9.53,8.59-11.28,11.37,6.58,8,11.87,9.77,2,1.5,2,1.5-.26-1.76-1.76.26,4.84,13.32,6.85,14.82c1,.75-3.46,1-8.33.82-2.44-.07-5-.22-7-.39-1,1.44-3.42-.54-3.42-.54a28.52,28.52,0,0,0,4.92,16.15c1.2,2.11,2.52,3.69,3.84,4.13,0,0-8.08-3.41-8.84-1.12-.38,1.14-.1,4.1.27,6.79s.81,5.18.81,5.18-1.77-2.25-2.52,0-.21,8.29-.21,8.29a42,42,0,0,0-3.89-2.82c-4.73-2.57-12.7-1.93-13.65,3.81-2.68-2.8-5-7.52-7.79-7.58-6.06,1-9.81,9.38-10.5,15.95-1.6-2.23-3.25-1.72-5.17-2-3.31,1-6.63,2-9.43,4.73-2-6.63-6.83-13.32-14.23-13.76,1.21-4.91,7.07-9.44,4.7-14.16-2.62-5.54-10.14-.5-13.51,3.27,3.75-8.42-8.93-5.41-12.16-4.67,0,0,.48-6.55-2.3-8.3a33.31,33.31,0,0,0,3.91-4.26c1.85-2.43,3.47-5.46,2.58-7.84s-3.22-3.57-5.33-4.16a16.38,16.38,0,0,0-4-.58s1.26-.63,3.13-1.67,4.36-2.47,6.82-4.07c3.54-3.21,7.43-5.31,9.37-9.64-.39-2.69-4.36-4-8.23-4.65a51.62,51.62,0,0,0-7.65-.63,4.16,4.16,0,0,0,.49-4c-1-2-10.59-6-10.59-6s6.29-1.28,8.79-3.81,12.07-1.06,13.07-4.08-.79-7.8-.79-7.8,7.32,5.76,14.87,5.73,2.73-8.31,2.21-14.35c0,0,10.2,3.36,16.48,6.83a13.3,13.3,0,0,1,4.44,3.4c2.79,4.27,4.79,3.25,5,2.5.12-.38,1.65,3.27,3.15,7.1S1007.39,1165.09,1007.39,1165.09Z" transform="translate(-357.04 -637.31)"/><path class="cls-2" d="M1160.93,1435.28c4.07-4.28,8.07-8.28,12.95-11.49l8.93-7.35,4.06-3.34s3.29.3,3.36,2.35c0,.51-1.6,2-4,3.89s-5.7,4.26-9,6.55C1173,1429,1168,1432,1164,1435a66.44,66.44,0,0,1,8.26.35c4.06.16,8.18.53,8.4.94.44.81-3.23,1.76-4,4.3s5.78,1,9.14,3.33,9.92,14.46,14.09,16.37c2.08,1-1.61.87-6.29.67s-10.33-.5-12.15.13c-3.48,6.9.52,13.9,3.52,19.9-8,1-4,16-9,19-3,2-9-2-13-5-3,8-6,15-8,23-7-7-17,8-23,4-4-3-5-14-14-13,3-3,8-7,7-8-5-9-19-12-29-9,4-5-4-8-7.89-8.83-4-.59-7.78-.88-7.78-.88a50.79,50.79,0,0,0,4-5.57c1.95-3.14,3.78-7,3.27-9.83-1-5.74-8-7.16-8-7.16s5.37-2.13,10.89-4.53c3.52-3.2,12.52-1.2,10.52-8.2,0-2-5-2-7.81-3a36.74,36.74,0,0,0-7.93-.13,17.16,17.16,0,0,0-6.14,1.48s5.21-3.87,3.53-5-12.57-7.8-12.57-7.8,5.58-5.11,4.64-8.78c0,0,12.74.4,15-5s-4.07-11.36-4.07-11.36,24.88,7.4,28.41,2.35-9.18-16.94-9.18-16.94,2.86-.5,3.6-3-4.14-13.41-4.14-13.41,6.29,3.9,10.39,3.77,11,8.67,14.19,6.93,5.51-7.16,5.51-7.16,1.58,10.62,7.94,16.57,8.88-4.81,13.21-10.29c0,0,10.49,19.37,9.45,25.15s1.45,6.52,2.25,6.09c.4-.22-1.2,4-2.9,8.49S1160.93,1435.28,1160.93,1435.28Z" transform="translate(-357.04 -637.31)"/><path class="cls-2" d="M1466.29,1379.87c.71-4.87,1.71-9.87,2.35-14.46l1.61-9.84.73-4.47s2.31-1.68,3.52-.39c.6.65-.87,7.48-2.49,14.15-.81,3.34-1.66,6.63-2.31,9.11s-1.09,4.14-1.09,4.14,2.7-2.22,5.49-4.36,5.67-4.23,6-4.09c.74.27-1.1,3-.16,5s4.34-2.61,7.85-3,14.64,3.73,18.43,2.6-9.77,8.19-11.61,10.88,6.24,8.21,11.43,10.13,2,1.56,2,1.56-.19-1.76-1.76.19,4.32,13.4,6.27,15c1,.78-3.47.83-8.3.51A85.26,85.26,0,0,0,1493,1412c2,7,3,15,9,20-3-2-7-4-8-1-2,3-2,7,0,11-1,0-3,0-3,1v8c-5-5-14-7-18,0-1-4-4-9-6-9-8,0-9,11-12,17-3-7-11,1-15,2,0-7-5-16-13-14,3-5,8-12,6-16-2-5-11,1-14,5v-4c-8-4-16,0-14-10,1-3,7-7,6.19-11.62-1.52-5.17-9-5.48-9-5.48s5.08-2.33,10.08-5.24C1415,1397,1422,1396,1422,1390c-1-4-5-4-8.08-4.58a51.3,51.3,0,0,0-7.57-.9,4.14,4.14,0,0,0,.63-4c-.93-2-10.3-6.34-10.3-6.34s6.29-1,8.87-3.46,12-.61,13.13-3.57-.5-7.77-.5-7.77,7.06,6,14.56,6.23,3-8.16,2.71-14.17c0,0,17.8,6.58,20.41,10.92s4.64,3.4,4.92,2.66c.14-.37,1.52,3.3,2.87,7.08S1466.29,1379.87,1466.29,1379.87Z" transform="translate(-357.04 -637.31)"/><path class="cls-2" d="M1287.32,841.13c-.32-8.13-.32-15.13-.46-23.29-.23-2.51-.48-5-.73-7.5-.15-1.47-.05-3.37,1.34-3.87a2.31,2.31,0,0,1,2.62,1.25,6.73,6.73,0,0,1,.56,3.08C1291,820,1290,830,1289,839c3-4,6-9,10-13v7c7-9,19-4,28-8-5,7-15,11-14,20,1,6,11,6,17,6-2-1-3,0-3,2,3,7,10,9,16,12-7,2-15,4-22,6,5,7,11,12,19,15-3,0-6-1-7,0-5,5,3,8,4,13a2.45,2.45,0,0,0-2.7,1.47c-.28,1,1,8.38,1.81,8.6-2.58-.7-4.87-2.17-7.3-3.26a12.66,12.66,0,0,0-7.74-.71c-2.49.66-4.31,2.43-3.64,5.89a60.52,60.52,0,0,0-4-6.63C1311,902,1308,894,1304,899a56.75,56.75,0,0,0-3.25,11.64,53.45,53.45,0,0,0-.61,12.12c-.85-1.81-2.23-3.94-4.22-3.68a4.63,4.63,0,0,0-2.35,1.37c-1.07,1-9.51,8.42-9,9.89-1-2.87-1.9-6.39-3.45-9.26s-3.79-5.08-7.6-5.33C1271,916,1268,916,1266,919c2-8,3-18-1-22-7-5-11,9-13,15-1-1-2-4-3-4-7,1-15,7-18,0s-3-20-14-17c4-8,14-13,14-21,0-4-9-5-14-3,2-6-3-9-8-11,7-8,27-10,22-24,6,4,13,6,20,2,1-1,1-3,.95-5.29a104.23,104.23,0,0,0-4.27-9.85c.31.63,7.46.75,8.45.88a63.86,63.86,0,0,1,9.32,1.88,32.27,32.27,0,0,1,8.14,3.41c3.41,3,7.41,1,8.65,5.79C1284.1,834.17,1285.76,837.63,1287.32,841.13Z" transform="translate(-357.04 -637.31)"/></svg>