<svg xmlns="http://www.w3.org/2000/svg" xmlns:xlink="http://www.w3.org/1999/xlink" viewBox="0 0 1343.38 1768.28"><defs><style>.cls-1{fill:#900d0d;}.cls-2{fill:#cf1b1b;}.cls-3,.cls-4,.cls-5,.cls-6{fill:#423144;}.cls-3{opacity:0.6;}.cls-3,.cls-4,.cls-5{isolation:isolate;}.cls-4{opacity:0.8;}.cls-5{opacity:0.5;}.cls-7{fill:url(#linear-gradient);}.cls-8{fill:url(#linear-gradient-2);}.cls-9{fill:url(#linear-gradient-3);}.cls-10{fill:url(#linear-gradient-4);}.cls-11{fill:url(#linear-gradient-5);}.cls-12{fill:url(#linear-gradient-6);}.cls-13{fill:url(#linear-gradient-7);}.cls-14{fill:url(#linear-gradient-8);}.cls-15{fill:url(#linear-gradient-9);}.cls-16{fill:url(#linear-gradient-10);}.cls-17{fill:url(#linear-gradient-11);}.cls-18{fill:url(#linear-gradient-12);}.cls-19{fill:url(#linear-gradient-13);}.cls-20{fill:url(#linear-gradient-14);}.cls-21{fill:url(#linear-gradient-15);}.cls-22{fill:url(#linear-gradient-16);}.cls-23{fill:url(#linear-gradient-17);}.cls-24{fill:url(#linear-gradient-18);}.cls-25{fill:url(#linear-gradient-19);}.cls-26{fill:url(#linear-gradient-20);}.cls-27{fill:url(#linear-gradient-21);}.cls-28{fill:url(#linear-gradient-22);}.cls-29{fill:url(#linear-gradient-23);}.cls-30{fill:url(#linear-gradient-24);}.cls-31{fill:url(#linear-gradient-25);}.cls-32{fill:url(#linear-gradient-26);}.cls-33{fill:url(#linear-gradient-27);}.cls-34{fill:url(#linear-gradient-28);}.cls-35{fill:url(#linear-gradient-29);}</style><linearGradient id="linear-gradient" x1="299.15" y1="869.49" x2="299.15" y2="740.52" gradientUnits="userSpaceOnUse"><stop offset="0" stop-color="#473042" stop-opacity="0"/><stop offset="1" stop-color="#473042"/></linearGradient><linearGradient id="linear-gradient-2" x1="370.37" y1="869.49" x2="370.37" y2="740.52" xlink:href="#linear-gradient"/><linearGradient id="linear-gradient-3" x1="465.57" y1="869.49" x2="465.57" y2="740.52" xlink:href="#linear-gradient"/><linearGradient id="linear-gradient-4" x1="54.05" y1="1018.73" x2="54.05" y2="740.52" xlink:href="#linear-gradient"/><linearGradient id="linear-gradient-5" x1="181.76" y1="869.49" x2="181.76" y2="740.52" xlink:href="#linear-gradient"/><linearGradient id="linear-gradient-6" x1="567.43" y1="869.49" x2="567.43" y2="740.52" xlink:href="#linear-gradient"/><linearGradient id="linear-gradient-7" x1="1044.23" y1="869.49" x2="1044.23" y2="740.52" xlink:href="#linear-gradient"/><linearGradient id="linear-gradient-8" x1="973.01" y1="869.49" x2="973.01" y2="740.52" xlink:href="#linear-gradient"/><linearGradient id="linear-gradient-9" x1="1289.33" y1="1018.73" x2="1289.33" y2="740.52" xlink:href="#linear-gradient"/><linearGradient id="linear-gradient-10" x1="877.82" y1="869.49" x2="877.82" y2="740.52" xlink:href="#linear-gradient"/><linearGradient id="linear-gradient-11" x1="1161.82" y1="869.49" x2="1161.82" y2="740.52" xlink:href="#linear-gradient"/><linearGradient id="linear-gradient-12" x1="775.95" y1="869.49" x2="775.95" y2="740.52" xlink:href="#linear-gradient"/><linearGradient id="linear-gradient-13" x1="1040.02" y1="1360.49" x2="1040.02" y2="1231.52" gradientUnits="userSpaceOnUse"><stop offset="0" stop-color="#473042" stop-opacity="0"/><stop offset="0.95" stop-color="#473042"/></linearGradient><linearGradient id="linear-gradient-14" x1="753.14" y1="728.93" x2="753.14" y2="311.62" gradientUnits="userSpaceOnUse"><stop offset="0.21" stop-color="#473042"/><stop offset="0.85" stop-color="#cf1b1b"/></linearGradient><linearGradient id="linear-gradient-15" x1="829.04" y1="728.93" x2="829.04" y2="478.45" xlink:href="#linear-gradient-14"/><linearGradient id="linear-gradient-16" x1="849.69" y1="447.8" x2="849.69" y2="392.18" xlink:href="#linear-gradient-14"/><linearGradient id="linear-gradient-17" x1="964.91" y1="728.93" x2="964.91" y2="321.76" xlink:href="#linear-gradient-14"/><linearGradient id="linear-gradient-18" x1="1001.03" y1="728.93" x2="1001.03" y2="321.12" xlink:href="#linear-gradient-14"/><linearGradient id="linear-gradient-19" x1="1119.08" y1="728.93" x2="1119.08" y2="342.95" xlink:href="#linear-gradient-14"/><linearGradient id="linear-gradient-20" x1="1238.49" y1="728.93" x2="1238.49" y2="380.46" xlink:href="#linear-gradient-14"/><linearGradient id="linear-gradient-21" x1="590.24" y1="728.93" x2="590.24" y2="307.27" xlink:href="#linear-gradient-14"/><linearGradient id="linear-gradient-22" x1="513.34" y1="728.93" x2="513.34" y2="470.46" xlink:href="#linear-gradient-14"/><linearGradient id="linear-gradient-23" x1="338.85" y1="728.93" x2="338.85" y2="316.77" xlink:href="#linear-gradient-14"/><linearGradient id="linear-gradient-24" x1="473.2" y1="1219.93" x2="473.2" y2="992.62" xlink:href="#linear-gradient-14"/><linearGradient id="linear-gradient-25" x1="53.69" y1="728.93" x2="53.69" y2="358.11" xlink:href="#linear-gradient-14"/><linearGradient id="linear-gradient-26" x1="493.4" y1="443.52" x2="493.4" y2="387.25" xlink:href="#linear-gradient-14"/><linearGradient id="linear-gradient-27" x1="379.46" y1="728.93" x2="379.46" y2="317.41" xlink:href="#linear-gradient-14"/><linearGradient id="linear-gradient-28" x1="591.61" y1="1219.93" x2="591.61" y2="868.42" xlink:href="#linear-gradient-14"/><linearGradient id="linear-gradient-29" x1="1040" y1="1219.93" x2="1040" y2="492" gradientUnits="userSpaceOnUse"><stop offset="0" stop-color="#473042"/><stop offset="0.95" stop-color="#473042"/></linearGradient></defs><title>6ixbitslogo_3</title><g id="Layer_1" data-name="Layer 1"><g id="Layer_4" data-name="Layer 4"><circle class="cls-1" cx="666.69" cy="361.38" r="71.63"/><circle class="cls-2" cx="671.69" cy="353.29" r="55.25"/><path class="cls-3" d="M573.77,883.57a33.05,33.05,0,0,0-20.45-18.47,17.76,17.76,0,0,0-28.87-10.47,33,33,0,0,0-54.91,12.22A17.77,17.77,0,0,0,457,886.56a33,33,0,0,0,44.35,48.81,17.76,17.76,0,0,0,20.11,4.13,17.77,17.77,0,0,0,31.8,4.51,33,33,0,1,0,20.57-60.43Z" transform="translate(-368.31 -491)"/><path class="cls-4" d="M1008.09,947.41a14.76,14.76,0,0,0-9.13-8.24,7.93,7.93,0,0,0-12.91-4.68,14.72,14.72,0,0,0-24.51,5.46,7.93,7.93,0,0,0-5.6,8.8,14.72,14.72,0,0,0,19.8,21.77,7.93,7.93,0,0,0,9,1.86,7.93,7.93,0,0,0,14.19,2,14.72,14.72,0,1,0,9.18-27Z" transform="translate(-368.31 -491)"/><path class="cls-5" d="M994.4,901.94a23,23,0,0,0-8.86,1.77,14.39,14.39,0,0,0-20.93-10.22,23,23,0,0,0-32-.53,20.39,20.39,0,0,0-40.63,2.45c0,.39,0,.78,0,1.16a23.06,23.06,0,1,0-9.4,44.94,14.39,14.39,0,0,0,15.89,7.55,23,23,0,0,0,32.59.49q.52-.5,1-1a14.39,14.39,0,0,0,22.34-4.41,23,23,0,0,0,24.17-2.37,23.05,23.05,0,1,0,15.86-39.78Z" transform="translate(-368.31 -491)"/><path class="cls-5" d="M1229.12,839.75a11.73,11.73,0,0,0-4.52.91,7.35,7.35,0,0,0-10.68-5.22,11.76,11.76,0,0,0-16.35-.27,10.4,10.4,0,0,0-20.74,1.25c0,.2,0,.4,0,.59a11.77,11.77,0,1,0-4.8,22.93,7.35,7.35,0,0,0,8.11,3.85,11.76,11.76,0,0,0,16.63.25q.27-.26.51-.53a7.34,7.34,0,0,0,11.4-2.25,11.76,11.76,0,0,0,12.33-1.21,11.77,11.77,0,1,0,8.1-20.3Z" transform="translate(-368.31 -491)"/><path class="cls-5" d="M1226.51,811.55a19.89,19.89,0,0,0-7.67,1.54,12.45,12.45,0,0,0-18.11-8.84,19.94,19.94,0,0,0-27.72-.46,17.64,17.64,0,0,0-35.15,2.12c0,.34,0,.67,0,1a20,20,0,1,0-8.13,38.88,12.45,12.45,0,0,0,13.75,6.53,19.94,19.94,0,0,0,28.2.42q.45-.44.87-.9a12.45,12.45,0,0,0,19.33-3.82,19.94,19.94,0,0,0,20.91-2,19.95,19.95,0,1,0,13.73-34.42Z" transform="translate(-368.31 -491)"/><path class="cls-4" d="M555.55,930a17.84,17.84,0,0,0-6.9,1.38,11.17,11.17,0,0,0-16.25-7.93,17.89,17.89,0,0,0-24.87-.41,15.82,15.82,0,0,0-31.54,1.9v.9a17.9,17.9,0,1,0-7.3,34.88A11.17,11.17,0,0,0,481,966.59a17.89,17.89,0,0,0,25.29.38q.4-.39.78-.81a11.17,11.17,0,0,0,17.34-3.43,17.89,17.89,0,0,0,18.76-1.84A17.89,17.89,0,1,0,555.52,930Z" transform="translate(-368.31 -491)"/><path class="cls-3" d="M1516.84,800.63a33.1,33.1,0,0,0-20.48-18.5,17.78,17.78,0,0,0-28.92-10.48,33,33,0,0,0-55,12.24,17.8,17.8,0,0,0-12.6,19.74,33,33,0,0,0,44.42,48.88,17.78,17.78,0,0,0,20.14,4.14,17.79,17.79,0,0,0,31.84,4.51,33,33,0,1,0,20.6-60.52Z" transform="translate(-368.31 -491)"/><path class="cls-4" d="M1460.55,807a17.84,17.84,0,0,0-6.9,1.38,11.17,11.17,0,0,0-16.25-7.93,17.89,17.89,0,0,0-24.87-.41,15.82,15.82,0,0,0-31.54,1.9v.9a17.9,17.9,0,1,0-7.3,34.88,11.17,11.17,0,0,0,12.34,5.86,17.89,17.89,0,0,0,25.29.38q.4-.39.78-.81a11.17,11.17,0,0,0,17.34-3.43,17.89,17.89,0,0,0,18.76-1.84,17.89,17.89,0,1,0,12.31-30.9Z" transform="translate(-368.31 -491)"/></g><polygon class="cls-6" points="345.01 316.77 341.14 728.93 258.65 728.93 258.65 319.37 332.69 317.14 345.01 316.77"/><polygon class="cls-6" points="381.24 317.41 381.24 728.93 359.5 728.93 359.5 317.83 377.69 317.48 381.24 317.41"/><polygon class="cls-6" points="515.99 480.12 515.99 728.93 415.14 728.93 415.14 313.56 491.09 387.25 495.71 391.73 495.71 443.14 500.69 452.22 504.69 459.52 510.69 470.46 515.99 480.12"/><polygon class="cls-6" points="592.79 307.27 592.79 728.93 542.08 728.93 542.08 365.23 566.91 365.23 566.91 317.83 587.69 309.35 592.79 307.27"/><polygon class="cls-6" points="1084.73 323.71 1084.73 728.93 1002.2 728.93 998.37 321.12 1011.69 321.52 1084.73 323.71"/><rect x="1159.15" y="1767.87" width="70.48" height="0.41"/><polygon class="cls-6" points="983.88 322.18 983.88 728.93 962.14 728.93 962.14 321.76 967.69 321.87 983.88 322.18"/><polygon class="cls-6" points="928.24 317.9 928.24 728.93 827.39 728.93 827.39 484.47 830.69 478.45 847.67 447.49 847.67 396.08 847.69 396.06 851.69 392.18 928.24 317.9"/><polygon class="cls-6" points="801.3 369.58 801.3 728.93 750.59 728.93 750.59 311.62 755.69 313.7 757.69 314.52 776.47 322.18 776.47 369.58 801.3 369.58"/><polygon class="cls-7" points="339.65 740.52 338.43 869.49 258.65 869.49 258.65 740.52 339.65 740.52"/><rect class="cls-8" x="359.5" y="740.52" width="21.74" height="128.97"/><rect class="cls-9" x="415.14" y="740.52" width="100.85" height="128.97"/><rect class="cls-10" y="740.52" width="108.1" height="278.21"/><rect class="cls-11" x="136.41" y="740.52" width="90.71" height="128.97"/><rect class="cls-12" x="542.08" y="740.52" width="50.71" height="128.97"/><polygon class="cls-13" points="1084.73 740.52 1084.73 869.49 1004.92 869.49 1003.72 740.52 1084.73 740.52"/><rect class="cls-14" x="962.14" y="740.52" width="21.74" height="128.97"/><rect class="cls-15" x="1235.28" y="740.52" width="108.1" height="278.21"/><rect class="cls-16" x="827.39" y="740.52" width="100.85" height="128.97"/><rect class="cls-17" x="1116.46" y="740.52" width="90.71" height="128.97"/><rect class="cls-18" x="750.59" y="740.52" width="50.71" height="128.97"/><path class="cls-19" d="M1015.63,1231.52c.74,6,7.7,63.32,9.48,129h29.83c1.78-65.65,8.74-123,9.48-129Z" transform="translate(-368.31 -491)"/><path class="cls-6" d="M476.41,996.28v223.65H368.31V939.24a101.68,101.68,0,0,1,45.82-83.62l5.87-3.87,4-2.64.24-.16v77.48a101.23,101.23,0,0,0,23,47.2,97.52,97.52,0,0,0,22.75,19c1,.61,2,1.21,3.07,1.79Z" transform="translate(-368.31 -491)"/><path class="cls-6" d="M595.23,901.57v318.36H504.52V944.81l2.43-2a108.2,108.2,0,0,0,14.49-14,109.85,109.85,0,0,0,17.85-29.45v-89.1l10.47,8c12.21,9.27,28.71,25.48,38.24,50.21.1.24.19.48.28.72a111.27,111.27,0,0,1,6.93,32Z" transform="translate(-368.31 -491)"/><polygon class="cls-6" points="1343.38 323.21 1343.38 728.93 1235.28 728.93 1235.28 384.07 1241.69 380.46 1343.38 323.21"/><path class="cls-6" d="M1575.48,1219.93h-90.71v-314l0-70,5.21-2,50.71-19.35s27.06,20,32.34,24.24Z" transform="translate(-368.31 -491)"/><polygon class="cls-6" points="928.24 317.9 928.24 728.93 827.39 728.93 827.39 484.47 830.69 478.45 847.67 447.49 847.67 396.08 847.69 396.06 851.69 392.18 928.24 317.9"/><polygon class="cls-6" points="928.24 317.9 928.24 728.93 827.39 728.93 827.39 484.47 830.69 478.45 847.67 447.49 847.67 396.08 847.69 396.06 851.69 392.18 928.24 317.9"/><polygon class="cls-6" points="515.99 480.12 515.99 728.93 415.14 728.93 415.14 313.56 491.09 387.25 495.71 391.73 495.71 443.14 500.69 452.22 500.69 479 504.69 479 504.69 459.52 510.69 470.46 515.99 480.12"/><g id="TOP"><polygon class="cls-20" points="755.69 313.7 755.69 728.93 750.59 728.93 750.59 311.62 755.69 313.7"/><polygon class="cls-21" points="827.39 728.93 830.69 728.93 830.69 478.45 827.39 484.47 827.39 728.93"/><polygon class="cls-22" points="847.69 447.8 851.69 440.51 851.69 392.18 847.69 396.06 847.69 447.8"/><polygon class="cls-23" points="962.14 728.93 967.69 728.93 967.69 321.87 962.14 321.76 962.14 728.93"/><polygon class="cls-24" points="998.2 728.93 1007.69 728.93 1007.69 321.52 994.37 321.12 998.2 728.93"/><polygon class="cls-25" points="1116.46 414.92 1116.46 728.93 1121.69 728.93 1121.69 342.95 1116.48 344.94 1116.46 414.92"/><polygon class="cls-26" points="1235.28 384.07 1235.28 728.93 1241.69 728.93 1241.69 380.46 1235.28 384.07"/><polygon class="cls-27" points="587.69 728.93 592.79 728.93 592.79 307.27 587.69 309.35 587.69 728.93"/><polygon class="cls-28" points="510.69 728.93 515.99 728.93 515.99 480.12 510.69 470.46 510.69 728.93"/><polygon class="cls-29" points="332.69 728.93 341.14 728.93 345.01 316.77 332.69 317.14 332.69 728.93"/><path class="cls-30" d="M470,992.62v227.31h6.41V996.28l-3.34-1.87C472,993.83,471,993.23,470,992.62Z" transform="translate(-368.31 -491)"/><polygon class="cls-31" points="51.69 728.93 55.69 728.93 55.69 358.11 51.69 360.75 51.69 728.93"/><polygon class="cls-32" points="491.6 437.52 495.69 443.52 495.71 442.44 495.71 391.73 491.09 387.25 491.6 437.52"/><polygon class="cls-33" points="377.69 728.93 381.24 728.93 381.24 317.41 377.69 317.48 377.69 728.93"/><path class="cls-34" d="M595.23,901.57l0-.44a111.27,111.27,0,0,0-6.93-32c-.09-.24-.18-.48-.28-.72v351.51h7.23Z" transform="translate(-368.31 -491)"/></g></g><g id="Layer_3" data-name="Layer 3"><path class="cls-6" d="M976.49,1394.7h3.61q60.15,0,120.3,0a7.6,7.6,0,0,1,6.08,2.49c5.29,5.52,10.73,10.9,16.21,16.24a6.58,6.58,0,0,1,2.26,5.13q-.09,64.67,0,129.34a6.31,6.31,0,0,1-2,4.89c-3.3,3.25-6.48,6.63-9.7,10-.63.65-1.18,1.37-2,2.3,3.45,3.45,6.65,7,10.19,10.09,2.66,2.35,3.56,4.91,3.55,8.46q-.18,66.23,0,132.47a9.05,9.05,0,0,1-3,7.26c-5.47,5.18-10.73,10.58-16,16a5.85,5.85,0,0,1-4.54,2q-61.19-.08-122.38,0c-.8,0-1.6-.11-2.37-.16C975.92,1738.39,975.75,1399.39,976.49,1394.7Zm39.36,188.53v120.85c4.17.75,66.74.56,69.22-.17V1583.23Zm0-37.33c3.77.77,66.63.64,69.17-.09.66-4.94.41-111.76-.29-114.25h-68.89Z" transform="translate(-368.31 -491)"/><path class="cls-6" d="M669.6,1491.24H630.23V1431.6H553.44c-.75,2.37-1.09,107.77-.3,114.66,1.37,0,2.82.12,4.27.12,29,0,58,.06,86.94-.07a9.36,9.36,0,0,1,7.54,3.18c5.17,5.47,10.58,10.73,15.95,16a5.84,5.84,0,0,1,2,4.52q-.08,73.72,0,147.45a5.85,5.85,0,0,1-2,4.54q-8.68,8.53-17.21,17.22a6.22,6.22,0,0,1-4.9,2q-54.25-.07-108.5,0a6.53,6.53,0,0,1-5.2-2.08c-5.56-5.75-11.24-11.38-17-17a5.64,5.64,0,0,1-2-4.89,19.55,19.55,0,0,0,0-2.09q0-147.27-.06-294.55c0-3.36.79-5.85,3.33-8.21,5.51-5.13,10.74-10.57,16-16a5.47,5.47,0,0,1,4.27-1.79q54.77.06,109.54,0a5.48,5.48,0,0,1,4.28,1.75c5.85,6,11.77,11.84,17.69,17.72a4.73,4.73,0,0,1,1.67,3.61q-.08,35.82,0,71.64C669.79,1489.94,669.68,1490.49,669.6,1491.24Zm-39.75,213.07c.71-5.53.47-118.45-.2-120.94-4.7-.74-74.25-.47-76.56.29v120.65Z" transform="translate(-368.31 -491)"/><path class="cls-6" d="M1412.78,1644h39.28v60.22c8.83.53,17.35.16,25.86.23s16.92,0,25.38,0h25.62c.8-2.76,1-117.21.15-121.47h-4q-43.81,0-87.62,0a8,8,0,0,1-6.39-2.58q-7.8-8.17-16-16a8,8,0,0,1-2.61-6.39q.1-66.76.06-133.52c0-3-.56-6.3.51-8.91s3.79-4.26,5.83-6.31c4.17-4.19,8.42-8.3,12.5-12.57a6.47,6.47,0,0,1,5.16-2.17c18.54.08,37.09,0,55.63,0,17.62,0,35.23,0,52.85,0a6.54,6.54,0,0,1,5.19,2.11c5.57,5.74,11.25,11.37,16.95,17a5.83,5.83,0,0,1,2,4.52c-.07,23.53,0,47.06-.05,70.58,0,.9-.12,1.8-.2,2.91H1529.6v-60.2h-76.8c-.72,2.47-1,108.89-.26,114.69,1.38,0,2.83.13,4.29.13,29.09,0,58.18.05,87.27-.07a8.68,8.68,0,0,1,6.94,2.95c5.21,5.44,10.57,10.73,16,16a6.55,6.55,0,0,1,2.21,5.14q-.1,73.36,0,146.73a6.55,6.55,0,0,1-2.17,5.16q-8.47,8.25-16.72,16.72a6.57,6.57,0,0,1-5.15,2.2q-54.24-.1-108.48,0a6.53,6.53,0,0,1-5.2-2.06c-5.56-5.75-11.23-11.39-17-17a6.23,6.23,0,0,1-2-4.89q.08-34.94,0-69.89C1412.58,1646.36,1412.7,1645.34,1412.78,1644Z" transform="translate(-368.31 -491)"/><path class="cls-6" d="M949.15,1741H907.91l-44.7-142.66-.79,0L818.18,1741H777.73c.46-1.39.84-2.58,1.25-3.76q29.05-85,58.15-169.93a9,9,0,0,0,.06-6.32q-28.13-81.25-56.11-162.55c-.37-1.08-.68-2.17-1.1-3.51h40.37l42.44,135,.87,0c7.22-22.4,14.27-44.85,21.39-67.28s14.31-45,21.53-67.72h40.79c-.41,1.3-.72,2.4-1.1,3.46q-29.19,81.43-58.45,162.84a10.08,10.08,0,0,0,0,7.32q30.05,84.08,60,168.2C948.23,1738,948.61,1739.37,949.15,1741Z" transform="translate(-368.31 -491)"/><path class="cls-6" d="M1289,1431.35h-56.72c-.09-12.29,0-24.17,0-36,2.71-.83,148.24-1.06,152.92-.3v36c-3.57.55-7.25.19-10.9.25-3.82.06-7.65,0-11.47,0H1328.7c-.23,10.56-.08,20.83-.1,31.1s0,20.63,0,30.94v247.09c-2.66.8-33.07,1.08-39.47.37-.17-11.35-.05-22.77-.07-34.19s0-22.95,0-34.42V1431.35Z" transform="translate(-368.31 -491)"/><path class="cls-6" d="M711.49,1394.84H750a4.86,4.86,0,0,1,.43.36.62.62,0,0,1,.17.28,15.58,15.58,0,0,1,.24,2.06q0,170.88,0,341.75a6.82,6.82,0,0,1-.25,1.3c-2.57.67-33.64.9-38.85.31C711,1738.51,710.71,1400.44,711.49,1394.84Z" transform="translate(-368.31 -491)"/><path class="cls-6" d="M1205.1,1741h-38.65c-.7-2.6-.92-341.07-.23-346.06h38.69C1205.61,1397.44,1205.84,1735.95,1205.1,1741Z" transform="translate(-368.31 -491)"/></g><g id="Layer_6" data-name="Layer 6"><path class="cls-35" d="M1080.69,861.73s6.71-31.6-11.46-34.76a1.7,1.7,0,0,0-.45,0h-.45a6.43,6.43,0,0,0,.11-1.16V821a5.92,5.92,0,0,0-5.9-5.89h-12.66V800.9h.39a4.35,4.35,0,1,0,0-8.69h-.39V676.07a4.73,4.73,0,0,0,4.34-4.74v-9.48a4.74,4.74,0,0,0-4.74-4.74h-2V575.35a4.76,4.76,0,0,0-2.14-4V538.22a4.75,4.75,0,0,0-2.6-4.23V513.88a2.53,2.53,0,0,0-1.19-2.13V493.38a1.38,1.38,0,0,0-1.38-1.38h-.36a1.38,1.38,0,0,0-1.38,1.38v18.37a2.5,2.5,0,0,0-1.19,2.13V534a4.75,4.75,0,0,0-2.6,4.23V571.4a4.76,4.76,0,0,0-2.14,4v81.76h-2a4.74,4.74,0,0,0-4.74,4.74v9.48a4.73,4.73,0,0,0,4.34,4.74V792.21h-.39a4.35,4.35,0,1,0,0,8.69h.39v14.22h-12.68a5.92,5.92,0,0,0-5.92,5.89v4.8a6.42,6.42,0,0,0,.11,1.16h-.9c-13.38,2.33-13.27,20.06-12.28,29.26.35,3.3.82,5.5.82,5.5l11.85,5.08v0h-3.95a5.54,5.54,0,0,0-5.53,5.5v.85a5.53,5.53,0,0,0,5.53,5.5H1031c.76,22.12-4.34,112.69-5.53,196.72-1,74.1-9.54,142-9.86,144.5h48.91c-.31-2.45-8.82-70.36-9.86-144.5-1.19-84-6.3-174.6-5.53-196.72h23.74a5.54,5.54,0,0,0,5.5-5.5v-.85a5.54,5.54,0,0,0-5.5-5.5h-4v0Zm-40.65-203,0,0,0,0Z" transform="translate(-368.31 -491)"/><path class="cls-2" d="M1040,826Z" transform="translate(-368.31 -491)"/><path class="cls-2" d="M1068.43,820.83v4a5.83,5.83,0,0,1-.11,1.15h-56.64a5.83,5.83,0,0,1-.11-1.15v-4Z" transform="translate(-368.31 -491)"/><rect class="cls-2" x="661.83" y="184.07" width="19.72" height="3.95"/><path class="cls-2" d="M1047.51,574.35v.79h-15v-.79a4.74,4.74,0,0,1,2.13-4h10.71A4.74,4.74,0,0,1,1047.51,574.35Z" transform="translate(-368.31 -491)"/><path class="cls-2" d="M1045.35,537.22v.4h-10.7v-.4a4.74,4.74,0,0,1,2.6-4.22v-.12h5.51V533A4.74,4.74,0,0,1,1045.35,537.22Z" transform="translate(-368.31 -491)"/><path class="cls-2" d="M1041.58,510.75h-3.16V492.38a1.39,1.39,0,0,1,1.38-1.38h.36a1.39,1.39,0,0,1,1.38,1.38v18.37Z" transform="translate(-368.31 -491)"/></g></svg>